<svg id="Behance" xmlns="http://www.w3.org/2000/svg" width="69.198" height="69.198" viewBox="0 0 69.198 69.198">
  <ellipse id="Ellipse_2" data-name="Ellipse 2" cx="34.599" cy="34.599" rx="34.599" ry="34.599" fill="#aeaeae"/>
  <path id="Path_23" data-name="Path 23" d="M373.138,38.479a5.65,5.65,0,0,1-2.371,4.775,8.07,8.07,0,0,1-2.563,1.228,11.1,11.1,0,0,1-3.107.421H353.053V19.972H366.4a4.928,4.928,0,0,1,2.352.563,5.843,5.843,0,0,1,1.791,1.458,6.657,6.657,0,0,1,1.141,2.037,6.815,6.815,0,0,1-.509,5.722,5.551,5.551,0,0,1-2.669,2.371,6.4,6.4,0,0,1,3.389,2.265A6.553,6.553,0,0,1,373.138,38.479ZM357.9,24.118V30.4h6.46a2.878,2.878,0,0,0,2.09-.842,3.1,3.1,0,0,0,.861-2.319,3.207,3.207,0,0,0-.79-2.281,2.562,2.562,0,0,0-1.95-.842Zm10.357,13.448a3.679,3.679,0,0,0-.227-1.283,3.575,3.575,0,0,0-.615-1.07,2.833,2.833,0,0,0-.913-.719,2.522,2.522,0,0,0-1.157-.265H357.9V40.8h7.2a3.137,3.137,0,0,0,1.247-.246,2.979,2.979,0,0,0,1-.684,3.335,3.335,0,0,0,.667-1.036A3.293,3.293,0,0,0,368.257,37.566Z" transform="translate(-336.613 2.336)" fill="#fff"/>
  <path id="Path_24" data-name="Path 24" d="M371.4,41.175a9.9,9.9,0,0,1-3.878-.731,8.743,8.743,0,0,1-4.849-4.915,9.4,9.4,0,0,1-.665-3.5,9.883,9.883,0,0,1,.648-3.59,8.718,8.718,0,0,1,4.849-4.986,9.936,9.936,0,0,1,3.928-.748,9.711,9.711,0,0,1,3.9.748c3.765,1.642,5.54,5.291,5.376,9.255a3.546,3.546,0,0,1-.085.682H366.84a5.31,5.31,0,0,0,.511,1.872,4.6,4.6,0,0,0,2.518,2.279,4.813,4.813,0,0,0,1.7.305,5.248,5.248,0,0,0,2.567-.663,3.508,3.508,0,0,0,1.652-1.751l3.911,1.089a7.949,7.949,0,0,1-3.147,3.351A9.757,9.757,0,0,1,371.4,41.175Zm4.629-10.75a4.75,4.75,0,0,0-1.481-3.216,4.783,4.783,0,0,0-4.9-.885,4.463,4.463,0,0,0-1.41.9,4.7,4.7,0,0,0-1.006,1.4,4.918,4.918,0,0,0-.459,1.8Z" transform="translate(-324.378 6.064)" fill="#fff"/>
  <path id="Path_25" data-name="Path 25" d="M363.442,20.473h11.929v2.96H363.442Z" transform="translate(-322.418 3.02)" fill="#fff"/>
</svg>
