<svg id="Facebook" xmlns="http://www.w3.org/2000/svg" width="69.199" height="69.198" viewBox="0 0 69.199 69.198">
  <path id="Path_26" data-name="Path 26" d="M463.505,47.777A34.6,34.6,0,1,0,423.5,81.957V57.778h-8.784v-10H423.5V40.155c0-8.673,5.166-13.462,13.069-13.462a53.12,53.12,0,0,1,7.745.677v8.514h-4.364c-4.3,0-5.639,2.667-5.639,5.4v6.491h9.6l-1.536,10h-8.062V81.957A34.609,34.609,0,0,0,463.505,47.777Z" transform="translate(-394.307 -13.177)" fill="#aeaeae"/>
  <path id="Path_27" data-name="Path 27" d="M430.59,49.973l1.536-10h-9.6V33.482c0-2.735,1.342-5.4,5.639-5.4h4.364V19.566a53.12,53.12,0,0,0-7.745-.677c-7.9,0-13.069,4.789-13.069,13.462v7.622h-8.784v10h8.784V74.152a35.1,35.1,0,0,0,10.812,0V49.973Z" transform="translate(-382.522 -5.373)" fill="#fff"/>
</svg>
