<svg id="Instagram" xmlns="http://www.w3.org/2000/svg" width="69.198" height="69.198" viewBox="0 0 69.198 69.198">
  <ellipse id="Ellipse_1" data-name="Ellipse 1" cx="34.599" cy="34.599" rx="34.599" ry="34.599" fill="#aeaeae"/>
  <g id="Group_16" data-name="Group 16" transform="translate(14.315 14.268)">
    <g id="Group_15" data-name="Group 15">
      <path id="Path_20" data-name="Path 20" d="M300.416,23.057a2.378,2.378,0,1,0,2.378,2.378A2.378,2.378,0,0,0,300.416,23.057Z" transform="translate(-269.391 -15.814)" fill="#fff"/>
      <path id="Path_21" data-name="Path 21" d="M300.344,24.346a9.99,9.99,0,1,0,9.988,9.988A10,10,0,0,0,300.344,24.346Zm0,16.389a6.4,6.4,0,1,1,6.4-6.4A6.407,6.407,0,0,1,300.344,40.735Z" transform="translate(-279.891 -14.052)" fill="#fff"/>
      <path id="Path_22" data-name="Path 22" d="M314.314,60.562h-16.2a12.2,12.2,0,0,1-12.187-12.184V32.18A12.2,12.2,0,0,1,298.119,20h16.2A12.2,12.2,0,0,1,326.5,32.18v16.2A12.2,12.2,0,0,1,314.314,60.562Zm-16.2-36.749a8.378,8.378,0,0,0-8.37,8.367v16.2a8.378,8.378,0,0,0,8.37,8.367h16.2a8.378,8.378,0,0,0,8.37-8.367V32.18a8.378,8.378,0,0,0-8.37-8.367Z" transform="translate(-285.932 -19.996)" fill="#fff"/>
    </g>
  </g>
</svg>
