<svg xmlns="http://www.w3.org/2000/svg" width="665.221" height="565.051" viewBox="0 0 665.221 565.051">
  <g id="Group_6" data-name="Group 6" transform="translate(170 -2449.136)">
    <path id="Path_6" data-name="Path 6" d="M410.115,681.573c3.8-23.031-.44-47.98-14.684-66.472-12.651-16.424-31.93-26.5-51.607-33.028s-40.246-10-60.048-16.141c-43.814-13.58-83.98-41.054-108.8-79.63-25-38.853-33.538-86.624-59.3-124.972C101.347,340,80.22,321.348,54.744,318.037c-24.361-3.165-48.96,8.507-66.1,26.1s-27.78,40.5-35.86,63.7C-65.49,460.292-72.164,517.26-62.532,571.967s36.092,106.94,77.236,144.26c46.59,42.259,109.789,63.574,172.628,66.354a371.957,371.957,0,0,0,62.941-2.729,461.51,461.51,0,0,0,62.485-12.5c16.9-4.563,33.725-9.846,50.266-15.583,9.658-3.351,17.942-7.881,24.262-16.113,10.249-13.35,17.473-30.317,21.322-46.586Q409.489,685.351,410.115,681.573Z" transform="translate(-44.552 2204.061)" fill="#8bafa2"/>
    <path id="Path_7" data-name="Path 7" d="M309.223,702.137c-21.4-40.649-65.43-60.158-103.951-80.852-21.877-11.753-43.4-24.442-62.9-39.9-19.627-15.57-36.039-34.05-50.112-54.733C65.581,487.432,45.89,443.008,11.342,409.621c-15.948-15.411-34.933-27.933-56.459-33.885a114.446,114.446,0,0,0-69.327,2.893,105.739,105.739,0,0,0-15.533,7.315c-1.249.705-.051,2.521,1.192,1.863a114.947,114.947,0,0,1,69.6-12.146C-36.734,378.908-16.294,389.4,1,403.846c36.058,30.12,56.641,73.1,81.264,112.091,12.945,20.5,27.419,39.942,45.38,56.342,17.833,16.284,38.1,29.674,59,41.655,19.82,11.36,40.491,21.17,60.214,32.7,18.853,11.019,37.2,23.912,50.64,41.377,29.138,37.854,26.863,88.136,21.664,133.069-.64,5.533-1.28,11.067-1.962,16.6-.079.635.887.852.987.2C325.011,793.419,331.051,743.593,309.223,702.137Z" transform="translate(-39.495 2175.916)" fill="#f7f1e4"/>
    <path id="Path_8" data-name="Path 8" d="M348.311,715.761a173.284,173.284,0,0,0-7.044-41.153c-3.682-12.293-8.819-24.477-16.893-34.89-7.556-9.743-17.633-17.565-30-21.363a55.6,55.6,0,0,0-6.852-1.633,38.359,38.359,0,0,0,2.886-5.3c10.38-23.32-6.458-47.95-27.386-60.346-26.468-15.677-58.79-16.822-88.492-23.524-26.141-5.9-50.591-17.579-70.342-34.639a130.585,130.585,0,0,1-25.05-28.792c-7.594-11.988-12.568-25.137-16.121-38.609-7.32-27.754-9.1-56.8-19.955-83.721-9.292-23.045-26.275-44.545-52.111-52.981a62.706,62.706,0,0,0-17.667-3.04c-2-.062-1.821,2.816.163,2.879,25.8.8,47.381,17.76,59.718,37.822,14.509,23.6,18.121,51.107,23.147,77.415,4.747,24.856,11.45,49.327,27.386,70.2,13.8,18.069,32.587,32.674,53.727,42.826a169.576,169.576,0,0,0,34.659,12.106c14.808,3.477,29.965,5.395,44.9,8.32,26.6,5.211,55.189,14.91,68.565,38.68,5.946,10.569,7.915,23.272,2.91,34.5a37.493,37.493,0,0,1-3.288,5.858c-9.018-1.155-18.345-.036-26.4,4.111-3.574,1.838-9.042,5.86-6.947,10.292,2.205,4.664,10.146,3,14.178,1.935a37.323,37.323,0,0,0,20.3-14.207,55.113,55.113,0,0,1,26.586,12.1c9.894,8.273,16.689,19.247,21.507,30.667a156.745,156.745,0,0,1,10.332,37.969,177.238,177.238,0,0,1-6.308,78.87,200.037,200.037,0,0,1-7.312,19.454.452.452,0,0,0,.817.38A169.826,169.826,0,0,0,348.311,715.761Zm-85.195-84.51c-2.489.454-7.541,1.455-9.139-1.04-2.114-3.3,3.49-6.812,5.921-8.075a40.353,40.353,0,0,1,18.1-4.254,49.665,49.665,0,0,1,5.852.3A34.284,34.284,0,0,1,263.117,631.252Z" transform="translate(10.946 2163.369)" fill="#3c4b56"/>
    <path id="Path_9" data-name="Path 9" d="M551.378,478.762c-3.16.014-6.359.147-9.521.37a138.891,138.891,0,0,0-59.918,18.257c-5.2,3.025-10.285,6.278-15.72,8.882-5.454,2.612-11.177,3.892-17.047,5.174-5.236,1.143-10.491,2.618-14.866,5.844a35.192,35.192,0,0,0-8.525,9.526c-4.867,7.585-7.845,16.315-13.292,23.539a32.679,32.679,0,0,1-11.121,9.231c-4.818,2.583-9.231,5.333-12.784,9.567a34.337,34.337,0,0,0-6.909,13.325c-1.486,5.693-1.045,11.578-.9,17.391.158,6.331-.444,12.24-3.67,17.808-2.794,4.823-6.462,9.12-8.3,14.453-3.918,11.356-.556,24.118,2.169,35.36A238.416,238.416,0,0,0,382.9,703.806c.349.83.711,1.654,1.07,2.479.046.542.091,1.084.143,1.627a28.966,28.966,0,0,0,.31,4.537,1.1,1.1,0,0,0,.25.542A148.656,148.656,0,0,0,388.5,732.57a77.989,77.989,0,0,0,2.436,7.517,1.168,1.168,0,0,0,2.224-.71,217.392,217.392,0,0,1-5.995-26.691.2.2,0,0,0,.106-.281c-.082-.192-.16-.386-.24-.58q-.282-2-.5-4.022c-.04-.367-.068-.736-.105-1.1.594-7.392,4.317-14.38,9.128-19.983,6.6-7.687,15.426-12.928,24.013-18.094,8.614-5.182,16.987-10.563,24.126-17.713a87.294,87.294,0,0,0,16.67-23.395c4.369-8.976,7.007-18.649,10.772-27.872a72.208,72.208,0,0,1,6.812-13.154,61.153,61.153,0,0,1,10.043-11.258c1.486-1.328,3.054-2.593,4.67-3.821h.061a.5.5,0,0,0,.515-.437c13.089-9.8,29.334-17.22,34.808-33.6,3.313-9.907,2.576-20.507,3.956-30.733,1.259-9.326,4.749-18.929,13.281-23.929a16.678,16.678,0,0,1,6.187-2.151A.9.9,0,0,0,551.378,478.762Zm-38.3,11.918c.239-1.753.278-3.525.35-5.292a133.372,133.372,0,0,1,26.615-4.549q-14.079,6.978-27.547,15.151A42.861,42.861,0,0,1,513.077,490.68ZM464.3,508.408a101.087,101.087,0,0,0,10.253-5.327c5.154-3,10.234-6.119,15.58-8.775a132.845,132.845,0,0,1,16.928-6.986c1.851-.619,3.722-1.181,5.6-1.715-.181,1.667-.379,3.335-.4,5.013a37.867,37.867,0,0,1-.251,5.671q-11.259,6.838-22.016,14.429a328.632,328.632,0,0,0-27.026,21.292c-.057-1.432.137-2.928.214-4.354.345-6.414.891-12.807,1.121-19.227C464.3,508.421,464.3,508.416,464.3,508.408Zm-40.422,25.511A56.83,56.83,0,0,1,430.753,523a27.157,27.157,0,0,1,12.028-8.2c5.252-1.829,10.791-2.628,16.083-4.318,1.458-.466,2.89-1,4.3-1.588-.462,7.922-.544,15.857-.953,23.783a280.936,280.936,0,0,0-20.966,20.495q-7.824,8.525-14.848,17.747a123.6,123.6,0,0,0-5.013-32.027C422.215,537.221,423.034,535.553,423.873,533.918Zm-37.45,42.058A31.69,31.69,0,0,1,396.7,564.518c4.441-2.972,9.431-4.865,13.385-8.562,4.828-4.513,7.968-10.378,10.9-16.268a209.385,209.385,0,0,1,4.259,32.753A218.079,218.079,0,0,0,404.4,606.187q-3.776,7.624-6.934,15.538c-1.185-2.936-2.108-6.014-3.1-9-1.241-3.717-2.451-7.448-3.588-11.2q-3.274-10.8-6.049-21.734A30.809,30.809,0,0,1,386.423,575.977ZM375,624.246c3.126-4.581,6.23-9.054,7.276-14.616,1.106-5.882.321-11.915.377-17.85a36.216,36.216,0,0,1,1.628-10.653q2.671,10.373,5.751,20.633c1.107,3.665,2.228,7.326,3.4,10.971,1.126,3.492,2.486,6.961,3.439,10.509A199.542,199.542,0,0,0,385.7,664.009c-5.515-9.25-10.864-18.612-16.273-27.923A35.77,35.77,0,0,1,375,624.246Zm10.03,44.192a173.5,173.5,0,0,0-1.265,35.214q-5.082-13.191-8.872-26.832-2.516-9.091-4.409-18.341c-1.217-5.973-2.23-12.138-1.722-18.254a27.258,27.258,0,0,1,.475-3.189c5.423,9.525,10.921,19.026,16.217,28.622C385.312,666.586,385.155,667.51,385.029,668.438Zm37.476-4.529c-8.763,5.327-17.967,10.26-25.374,17.474a44.989,44.989,0,0,0-11.33,17.031,164.975,164.975,0,0,1,.41-22.651c.237-2.714.558-5.418.919-8.116a256.426,256.426,0,0,1,25.025-5.8c4.181-.78,8.364-1.556,12.523-2.455,2.309-.5,4.688-.976,7.021-1.587C428.742,659.964,425.67,661.986,422.5,663.909Zm38.878-44.449a88.134,88.134,0,0,1-15.33,25.391,83.693,83.693,0,0,1-11.633,10.9c-3.286.782-6.537,1.758-9.837,2.481-4.24.93-8.509,1.73-12.774,2.534-8.192,1.543-16.584,2.961-24.5,5.645a192.324,192.324,0,0,1,11.034-42.228c21.2-5.621,43.331-6.412,64.937-9.71C462.666,616.142,462.043,617.81,461.383,619.46Zm11.17-28.2c-3.625,6.963-6.084,14.421-8.75,21.788-21.579,3.8-43.535,4.875-64.927,9.783q1.893-4.814,4.016-9.529a213.735,213.735,0,0,1,22.94-38.838.666.666,0,0,0,.25-.009c5.373-1.276,10.986-1.286,16.477-1.542,5.537-.257,11.083-.413,16.624-.589,9.918-.315,19.862-.749,29.789-.867A65.27,65.27,0,0,0,472.553,591.258Zm51.49-50.069a37.862,37.862,0,0,1-8.556,10.818c-7.066,6.42-15.579,10.983-23.148,16.75-.679.517-1.339,1.055-2,1.588-10.577.506-21.189.633-31.769,1.007-5.636.2-11.27.441-16.9.633-4.948.169-9.953.193-14.828,1.132q5.27-7.029,11.043-13.673A275.2,275.2,0,0,1,463.44,533.8c4.9.6,9.822,1.062,14.722,1.676l15.65,1.964c10.106,1.269,20.218,2.5,30.358,3.473C524.125,541.005,524.089,541.1,524.042,541.189Zm.728-1.567c-11.244-.191-22.453-1.937-33.611-3.214l-16.806-1.923c-2.8-.32-5.591-.69-8.384-1.046-.615-.078-1.232-.149-1.844-.245q10.188-8.945,21.106-17.006c9.051-6.682,18.427-12.9,28.027-18.763,5.868,1.022,11.854,1.444,17.7,2.584-2.091,8.454-1.82,17.385-2.839,26.02A47.894,47.894,0,0,1,524.77,539.622Zm8.071-45.414a39.987,39.987,0,0,0-1.647,4.931c-5.69-.47-11.323-1.629-17-2.28q12.641-7.671,25.74-14.556,1.559-.82,3.114-1.647c.661-.025,1.322-.042,1.984-.061C539.478,483.282,535.216,488.459,532.841,494.208Z" transform="translate(-57.073 2171.088)" fill="#8bafa2"/>
  </g>
</svg>
