<svg xmlns="http://www.w3.org/2000/svg" width="510.92" height="452.332" viewBox="0 0 510.92 452.332">
  <g id="Group_4" data-name="Group 4" transform="translate(180.164 178.66)">
    <path id="Path_1" data-name="Path 1" d="M39.2,174.939c15.55,16.759,34.819,31.332,56.6,36.1,28.878,6.316,59.536-4.492,82.693-22.867,13.23-10.5,25.361-23.845,41.782-27.8,24.206-5.828,47.505,10.586,71.495,17.246,40.039,11.116,85.388-7.453,109.523-41.279s27.65-80.171,12.833-118.992S367.655-52.669,330.41-71.094,250.7-95.835,209.2-93.765C143.793-90.5,71.743-60.012,31.064-7.184c-36.588,47.513-42.745,115.84-6.027,165.059A208.172,208.172,0,0,0,39.2,174.939Z" transform="matrix(0.914, -0.407, 0.407, 0.914, -142.213, 79.377)" fill="#d3b379"/>
    <path id="Path_2" data-name="Path 2" d="M176.17,203.963c-18.783,13.767-31.638,34.784-12.444,55.877,7.8,8.569,18.767,13.71,30.006,16.525a93.606,93.606,0,0,0,65.138-7.616c13.568-7.031,25.841-18.253,30-32.956,6.407-22.639-7.967-42.891-29.722-49.2-18.647-5.409-41.524-1.548-59.585,4.9A94.34,94.34,0,0,0,176.17,203.963Z" transform="translate(-43.23 -25.876)" fill="#d3b379"/>
    <g id="Group_2" data-name="Group 2" transform="translate(-42.34 12.809)">
      <path id="Path_3" data-name="Path 3" d="M220.538,192.1c-.025-.328-.049-.656-.075-.983a.619.619,0,0,0-.032-.909l-.04-.034c-.645-8.4-1.262-16.809-1.966-25.207a64.87,64.87,0,0,0-1.851-12.038,32.746,32.746,0,0,0-5.763-11.192,75.154,75.154,0,0,0-9.084-9.473,31.187,31.187,0,0,1,18.638,5.3c.488.331,1.3-.121,1-.747a70,70,0,0,1-7.006-29.7,15.848,15.848,0,0,0-1.127-6.777c-1.142-2.343-3.266-4.03-5.258-5.625A82.578,82.578,0,0,0,182,80.706a33,33,0,0,1,29.167,4.373.689.689,0,0,0,1.058-.792,116.336,116.336,0,0,1-5.436-18.648c-.629-3.129-1.121-6.282-1.5-9.451-.354-2.994-.668-6.072-2.019-8.814-2.583-5.242-8.048-8.289-13.285-10.335a50.62,50.62,0,0,0-32.318-1.487c1.993-6.264,8.3-10.28,14.565-11.409,7.492-1.35,15.111.753,22.269,2.807.664.191,1.338-.635.679-1.128-9.433-7.063-13.594-18.722-20.94-27.6a72.643,72.643,0,0,0-23.175-18.386c-18.495-9.356-42.2-11.153-60.68-.778C80.346-15.309,72.5-5.946,69.82,5.345,64.1.4,58.111-4.218,52.011-8.68c-1.853-1.355-3.71-2.678-5.628-3.938a.2.2,0,0,0-.242.305C53.029-6.436,60.4-1.138,67.292,4.742c.521.445,1.035.9,1.551,1.347-23.065,4.378-39.856,26.2-40.653,49.258a63.229,63.229,0,0,0,8.8,33.775,66.4,66.4,0,0,0,5.173,7.627,37.862,37.862,0,0,0,5.872,6.453c4.944,3.9,9.121-2.339,11.948-5.677,7.7-9.087,22.553-10.734,32.168-3.836Q81.535,100.278,70.94,106.9c-2.489,1.557-5.138,3.231-6.659,5.83-1.629,2.784-1,5.718.514,8.4,6.753,11.994,16.826,22.349,27.72,30.637a144.778,144.778,0,0,0,37.134,20.111c13.44,5.012,27.362,8.033,41.521,10.149,14.563,2.176,29.354,3.873,43.311,8.808q2.577.911,5.1,1.972A.7.7,0,0,0,220.538,192.1Zm-3.333-27.654c.316,4.27.6,8.543.9,12.814q.414,5.829.826,11.657c-13.011-11.182-26.96-21.253-39.534-32.946a180.592,180.592,0,0,1-17.774-19.242,57.008,57.008,0,0,1,23.715,1.338,53.768,53.768,0,0,1,22.485,12.8,63.751,63.751,0,0,1,9.182,11.193Q217.117,163.249,217.205,164.441Zm2.058-29.085a31.912,31.912,0,0,0-19.159-4.27.642.642,0,0,0-.315,1.126c6.435,5.665,12.87,11.874,15.489,20.285a43.4,43.4,0,0,1,1.6,8.237,52.644,52.644,0,0,0-17.853-17.656,55.918,55.918,0,0,0-24.011-7.906,52.467,52.467,0,0,0-14.088.662c-5.208-6.554-10.04-13.416-14.6-20.463-4.479-6.928-8.709-14.007-12.855-21.137,10.963-6.643,25.248-3.808,36.6.3a94.409,94.409,0,0,1,33.98,21.973,138.126,138.126,0,0,1,14.7,17.652C218.915,134.561,219.085,134.96,219.263,135.356Zm-39.6-55.23c-.486.2-.592,1.063-.016,1.234a82.128,82.128,0,0,1,26.064,13.085c2.039,1.535,4.315,3.126,5.775,5.253,1.543,2.246,1.606,4.948,1.644,7.574a71.838,71.838,0,0,0,1.666,14.68,69.907,69.907,0,0,0,2.623,8.88,107.955,107.955,0,0,0-11.132-13.49A101.334,101.334,0,0,0,189.7,103.407a90.259,90.259,0,0,0-17.664-9.212,70.615,70.615,0,0,0-19.217-4.7c-6.839-.58-13.924.253-19.894,3.81-4.445-7.663-8.8-15.38-13.255-23.034Q115.787,63.6,111.749,57a49.412,49.412,0,0,1,40.956-14.532,58.389,58.389,0,0,1,20.084,6.006c7.057,3.566,13.244,8.58,18.95,14.007,3.358,3.193,6.58,6.535,9.776,9.89a49.654,49.654,0,0,1,7.773,9.9A34.2,34.2,0,0,0,179.664,80.126ZM191.953,24.88c-6.863-1.853-14.133-3.369-21.122-1.667-6.652,1.62-12.862,6.182-14.549,13.077-.112.456.407.717.773.6a50.036,50.036,0,0,1,31.03.645c5.3,1.872,11.184,4.688,13.961,9.863,1.471,2.742,1.745,5.9,2.083,8.932.336,3.02.778,6.026,1.344,9.012a116.233,116.233,0,0,0,4.214,15.9,45.669,45.669,0,0,0-6.185-8.015c-2.882-3.089-5.857-6.1-8.869-9.066-5.871-5.776-12.109-11.259-19.323-15.308-12.822-7.195-28.265-9.755-42.512-5.648-8.084,2.331-15.912,6.733-21.419,13.18A275.835,275.835,0,0,0,90.823,27c-.49-.6-.987-1.194-1.484-1.789C97.7,12.878,111.571,5.318,126.246,3.477c14.719-1.847,29.6,1.6,42.938,7.763,8.034,3.714,15.355,8.526,22.636,13.512C191.865,24.794,191.907,24.839,191.953,24.88ZM88.768-18.625c9.388-5.981,20.782-8.442,31.826-8.169a71.39,71.39,0,0,1,51.5,24.476c3.932,4.55,7,9.665,10.174,14.751a72.354,72.354,0,0,0,6.657,9.323A134.865,134.865,0,0,0,171.948,11.8a94.95,94.95,0,0,0-21.816-7.822C135.552.8,119.906,1.711,106.542,8.744A47.49,47.49,0,0,0,88.773,24.527,168.478,168.478,0,0,0,73,8.148Q71.746,7.012,70.47,5.9C73.022-4.26,80-13.038,88.768-18.625Zm-37.6,121.709c-1.771-.093-3.022-1.6-4.143-2.8A65.744,65.744,0,0,1,41.564,93.6,63.851,63.851,0,0,1,29.727,60.874,52.245,52.245,0,0,1,38.585,28.1C45.764,17.573,56.793,9.572,69.449,7.3a.627.627,0,0,0,.443-.3c-.1.162,8.642,8.163,9.432,8.972,3.217,3.294,6.267,6.739,9.19,10.29A70.084,70.084,0,0,0,50.068,83.992a68.357,68.357,0,0,0,1.38,19.087C51.353,103.082,51.26,103.089,51.164,103.084ZM70.7,127.395c-1.939-2.708-4.2-5.624-5.408-8.747-1.33-3.424.6-6.174,3.218-8.246a110.37,110.37,0,0,1,9.353-6.116q5.289-3.365,10.563-6.751L93.6,94.217a.611.611,0,0,0,.014-.961c-7.92-6.008-19.223-6.478-27.889-1.777a24.388,24.388,0,0,0-5.779,4.316c-1.875,1.9-3.294,4.244-5.4,5.924a6.112,6.112,0,0,1-2.477,1.292A71.138,71.138,0,0,1,53.49,69.5,68.13,68.13,0,0,1,72.183,38.979,71.445,71.445,0,0,1,89.159,27.05c5,6.135,9.615,12.579,14.039,19.134q6.6,9.786,12.6,19.967c7.583,12.821,14.757,25.885,22.446,38.644a38.8,38.8,0,0,0-10.875,6.89,91.072,91.072,0,0,0-9.078,9.012,104.124,104.124,0,0,0-14.124,20.817,105.4,105.4,0,0,0-5.654,12.724A111.852,111.852,0,0,1,70.7,127.395Zm66.885,45.675a151.7,151.7,0,0,1-37.407-17.7c-.384-.254-.762-.516-1.143-.774a127.3,127.3,0,0,1,11.3-21.856,99.228,99.228,0,0,1,16.236-19.048,40.031,40.031,0,0,1,12.21-8q1.732,2.861,3.5,5.7c3.832,6.132,7.84,12.167,12.1,18.014a45.192,45.192,0,0,0-4.861,10.029,28.583,28.583,0,0,0-1.1,9.782,47.182,47.182,0,0,0,6.451,20.457,51.66,51.66,0,0,0,6.816,9.253A188.488,188.488,0,0,1,137.583,173.07Zm41.34,8.619c-5.354-.782-10.69-1.594-15.994-2.539A54.293,54.293,0,0,1,151.7,160.255c-2.133-6.18-3.153-12.989-1.584-19.423.934-3.832,2.886-7.295,4.781-10.721a192.591,192.591,0,0,0,18.819,22.183c12.6,12.628,27.092,23.12,40.78,34.5q2.3,1.912,4.565,3.871c.01.154.021.307.032.461C206.294,185.852,192.545,183.679,178.923,181.689Z" fill="#3c4b56"/>
      <path id="Path_4" data-name="Path 4" d="M171.361,64.847c1.558-2.061,2.68-5.07,1.648-7.606-1.179-2.9-4.532-3.833-7.332-4.293a60.609,60.609,0,0,0-23.082.762c-3.493.789-7.182,1.885-9.864,4.383a8.16,8.16,0,0,0-2.382,8.662,11.534,11.534,0,0,0,7.06,6.888c3.638,1.318,7.575,1.187,11.366.8C156.824,73.624,166.178,71.7,171.361,64.847ZM150.442,72.96c-6.386.808-15.034,1.33-18.548-5.385a7.091,7.091,0,0,1,1.221-8.421c2.359-2.45,5.833-3.632,9.046-4.455a55.755,55.755,0,0,1,14.381-1.841,49.458,49.458,0,0,1,8.718.658,10.434,10.434,0,0,1,4.787,2.026c2.643,2.2,2.456,5.358.64,8.018C166.3,69.987,157.686,72.045,150.442,72.96Z" fill="#3c4b56"/>
      <path id="Path_5" data-name="Path 5" d="M111.986,120.242c2.175-2.585,3.72-5.815,3.318-9.265a7.734,7.734,0,0,0-5.393-6.627c-3.7-1.166-7.6.1-10.939,1.755a29.069,29.069,0,0,0-6.689,4.552,20.8,20.8,0,0,0-4.677,5.323c-1.714,2.844-2.756,6.273-1.771,9.557a7.618,7.618,0,0,0,7.03,5.368c3.716.236,7.231-1.562,10.327-3.419A35,35,0,0,0,111.986,120.242Zm-16.739,9.169c-2.951.525-6.2-.3-7.709-3.1s-.865-6.1.438-8.839a21.833,21.833,0,0,1,7.844-8.62c.131-.084.26-.17.392-.253.057-.037.115-.072.172-.108.358-.22.72-.435,1.089-.642,2.822-1.587,6.161-3,9.458-2.892,2.953.093,5.747,1.6,6.723,4.5.989,2.951-.028,6.136-1.759,8.587a29.445,29.445,0,0,1-7.157,6.753C101.938,126.785,98.676,128.8,95.247,129.411Z" fill="#3c4b56"/>
    </g>
  </g>
</svg>
