<svg xmlns="http://www.w3.org/2000/svg" width="2171.182" height="1654.332" viewBox="0 0 2171.182 1654.332">
  <path id="Path_16" data-name="Path 16" d="M2352.126,948.894c-81.863,23.959-167.511,48.7-253.439,43.272-41.938-2.65-83.318-13.385-120.072-34.715-34.656-20.113-63.374-48.9-93.045-75.764-29.2-26.437-60.237-51.578-97.339-64.967-36.16-13.049-74.917-15.071-112.907-14.237-78.272,1.719-165.438,17.941-235.217-28.657-61.641-41.165-92.813-114.548-136.9-172.34-46.545-61.01-110.48-98.417-182.762-117.9-77.863-20.987-158.478-22.028-238.4-24.293-88.566-2.511-180.246-6.838-262.344-44.74C487.282,353.426,405.936,198.351,423.062,50.547a324.789,324.789,0,0,1,10.2-50.775c.277-.984-1.227-1.3-1.511-.322C391.883,137.748,444.473,296.587,556,383.256c140.654,109.3,328.2,70.108,491.256,92.286,78.365,10.662,159.011,34.836,217.941,91.811,53.977,52.184,82.241,125.346,133.052,180.27,25.123,27.155,55.682,47.283,90.906,57.328,38.319,10.93,78.781,10.713,118.186,8.908,41.751-1.912,83.818-5.939,125.538-1.4,41.925,4.565,79.443,19.842,113.319,45.628,32.091,24.426,59.994,54.073,91.4,79.373s66.5,43.926,105.34,53.646c81.689,20.444,168.9,4.361,248.632-17.817,20.888-5.809,41.509-12.588,62.157-19.237C2356.968,953.012,2355.374,947.944,2352.126,948.894Z" transform="matrix(0.927, -0.375, 0.375, 0.927, -387.599, 883.447)" fill="#6d7d8c"/>
</svg>
