<svg id="Linkedin" xmlns="http://www.w3.org/2000/svg" width="69.199" height="69.198" viewBox="0 0 69.199 69.198">
  <ellipse id="Ellipse_3" data-name="Ellipse 3" cx="34.599" cy="34.599" rx="34.599" ry="34.599" fill="#aeaeae"/>
  <path id="Path_28" data-name="Path 28" d="M403.1,93.792h6.7v21.527h-6.7Zm3.351-10.7a3.88,3.88,0,1,1-3.883,3.878,3.881,3.881,0,0,1,3.883-3.878" transform="translate(-383.015 -65.636)" fill="#fff"/>
  <path id="Path_29" data-name="Path 29" d="M407.4,87.922h6.417v2.944h.088a7.038,7.038,0,0,1,6.337-3.476c6.775,0,8.024,4.453,8.024,10.251v11.808h-6.687V98.983c0-2.5-.047-5.708-3.476-5.708-3.483,0-4.016,2.719-4.016,5.525v10.649H407.4Z" transform="translate(-376.414 -59.766)" fill="#fff"/>
</svg>
