<svg xmlns="http://www.w3.org/2000/svg" width="693.195" height="506.49" viewBox="0 0 693.195 506.49">
  <g id="Group_7" data-name="Group 7" transform="translate(-1473.908 -2547.615)">
    <path id="Path_11" data-name="Path 11" d="M67.545,82.892C99.282,68.983,134.577,65.5,169.221,64.868S238.64,66.253,273.1,62.6C371.612,52.158,463.43-4.1,562.4.238c20.251.887,40.834,4.507,58.466,14.505s32,27.152,34.926,47.209c2.789,19.1-5.036,38.624-17.359,53.487s-28.782,25.683-45.557,35.239c-128.4,73.137-283.884,82.134-430.923,67.492-30.563-3.043-61.264-7.078-90.392-16.823-24.14-8.077-51.2-20.773-68.367-40.235-7.66-8.683.227-20.174,5.2-28.383a116.324,116.324,0,0,1,23.953-27.874A141.3,141.3,0,0,1,67.545,82.892Z" transform="translate(1473.908 2839.808) rotate(-17)" fill="#6d7d8c"/>
    <path id="Path_12" data-name="Path 12" d="M689.567,538.675c-33.577,24.609-56.557,62.179-22.244,99.886,13.939,15.317,33.548,24.509,53.638,29.54A167.338,167.338,0,0,0,837.4,654.487c24.253-12.571,46.194-32.629,53.634-58.914,11.454-40.47-14.242-76.673-53.132-87.954-33.333-9.668-74.23-2.767-106.515,8.767A168.627,168.627,0,0,0,689.567,538.675Z" transform="translate(919.066 2210.514)" fill="#d3b379"/>
    <path id="Path_13" data-name="Path 13" d="M771.748,682.453a84.934,84.934,0,0,0,31.665-5.676,134.153,134.153,0,0,0,29.239-15.456,164.587,164.587,0,0,0,19.363-7.156c-2.279,3.316-5.322,6.155-8.069,9.034l-12.753,13.366c-7.2,7.549-14.877,15.065-19.688,24.452-1.4,2.74-4.99,9.343.1,10.507a8.6,8.6,0,0,0,5.422-1,33.9,33.9,0,0,0,6.591-4.093c7.835-6.111,14.362-14.18,19.647-22.544a92.1,92.1,0,0,0,12.775-30.918.83.83,0,0,0-.074-.543c2.784-1.252,5.547-2.532,8.283-3.816a352.372,352.372,0,0,0,31.273-16.636c.994-.595,1.967-1.22,2.953-1.824q-12.2,14.81-24.375,29.644c-4.25,5.205-8.526,10.392-12.683,15.673-3.86,4.907-7.895,9.86-10.924,15.343-1.124,2.035-2.9,4.868-2.672,7.3.212,2.22,2.367,2.7,4.207,2.25,5.741-1.416,10.733-5.579,15.11-9.345a108.529,108.529,0,0,0,22-26.135,101.629,101.629,0,0,0,8.438-17.5,50.012,50.012,0,0,0,3.436-18.164l.262-.323a.753.753,0,0,0,.155-.574q12.971-8.131,25.2-17.361-6.973,17.2-14.8,34.038c-2.834,6.085-5.81,12.1-8.74,18.14a81.819,81.819,0,0,0-6.462,16.828,40.666,40.666,0,0,0-.774,4.293,7.011,7.011,0,0,0,.09,3.611c.747,1.729,2.7,1.961,4.317,1.4,2.359-.816,4.342-2.99,6.023-4.74a54.879,54.879,0,0,0,5.632-7.034,119.275,119.275,0,0,0,15.11-31.814c3.784-12.174,5.763-25.371,3.983-38.082q11.182-8.737,21.645-18.353Q958.6,583.766,964.276,578q-4.021,19.762-9.412,39.212-2.836,10.179-6.045,20.252c-2.066,6.487-4.655,13-5.128,19.851-.136,1.972.005,4.273,1.342,5.858,1.584,1.877,3.8,1.279,5.681.221,4.982-2.8,8.539-7.57,11.164-12.54,5.782-10.942,8.543-23.476,9.4-35.746a129.6,129.6,0,0,0-.28-20.767c-.324-3.558-.711-7.136-1.336-10.654a19.638,19.638,0,0,0-3.086-8.052,344.352,344.352,0,0,0,31.932-38.077c.55-.763,1.085-1.535,1.63-2.3.135-.124.272-.248.408-.374q-3.312,20.4-6.414,40.834l-3.338,21.8c-1.03,6.729-2.064,13.463-2.486,20.264-.182,2.948-.252,6.13,1.109,8.842a3.123,3.123,0,0,0,5.046,1.208c2.146-1.628,3.761-4.5,5.117-6.784a53.578,53.578,0,0,0,3.885-8.109c4.486-11.675,6.137-24.642,6.207-37.091a118.4,118.4,0,0,0-7.256-42.463c.03-.2.061-.4.09-.605a.917.917,0,0,0-.167-.641,350.729,350.729,0,0,0,22.724-37.567c-1.256,12.538-2.615,25.064-4.24,37.561-.889,6.849-1.911,13.681-2.811,20.529-.852,6.485-1.5,13.079-.852,19.615.29,2.924.866,11.769,5.693,10.95,2.532-.429,4.138-3.938,5.2-5.969a47.441,47.441,0,0,0,3.264-8.243,124.834,124.834,0,0,0,5.005-37.8,133.681,133.681,0,0,0-2.136-21.952c-1.236-6.8-2.874-13.823-6.549-19.758,1.571-3.134,3.11-6.284,4.584-9.465q5.891-12.719,10.757-25.909c.09-.062.182-.121.272-.185a1.017,1.017,0,0,0,.435-.661q4.561,19.741,9.178,39.47c1.622,6.971,3.234,13.946,4.962,20.893,1.611,6.475,3.153,13.261,6,19.328.916,1.954,2.379,5.355,4.636,6.1,2.305.763,3.614-1.833,4.331-3.547a38.577,38.577,0,0,0,2.461-16.421,104.913,104.913,0,0,0-8.26-35.661,103.565,103.565,0,0,0-22.337-33.907,306.487,306.487,0,0,0,9.5-32.4q.929-3.994,1.763-8.011a.747.747,0,0,0-1.464-.294,383.559,383.559,0,0,1-12.439,41.293,115.069,115.069,0,0,0-36.02,4.793c-11.994,3.539-23.989,8.663-34.276,15.841a77.247,77.247,0,0,0-6.9,5.412c-2.091,1.846-4.522,3.9-5.99,6.3-1.063,1.738-.985,3.855,1.074,4.766,2.393,1.06,5.832.76,8.361.546,6.172-.523,12.116-2.513,17.92-4.565q9.347-3.3,18.4-7.377a240.653,240.653,0,0,0,35.11-19.481q-2.987,7.755-6.334,15.365-3.874,8.8-8.234,17.374c-4.877-.527-9.869.569-14.594,1.655-5.272,1.211-10.516,2.544-15.684,4.144-10.116,3.134-20.055,7.265-28.827,13.264a65.565,65.565,0,0,0-11.764,10.18c-1.275,1.416-2.888,3.369-2.4,5.439.525,2.237,3.1,2.35,4.974,2.434,11.608.518,22.667-6.1,32.41-11.618,11.019-6.239,21.807-12.876,32.7-19.331a348.717,348.717,0,0,1-20.824,34.368c-.581.844-1.186,1.673-1.776,2.513-13.519,1.9-27.064,3.776-40.4,6.736-12.1,2.686-24.408,6.236-34.71,13.386a48.874,48.874,0,0,0-6.727,5.608c-1.716,1.719-4.011,3.845-4.113,6.451-.223,5.759,8.041,5.985,11.959,5.973,13.351-.04,25.992-5.427,37.654-11.456,10.046-5.193,20.376-10.586,29.559-17.37a344.856,344.856,0,0,1-29.043,33.777c-13.216,1.168-26.513,2.312-39.644,4.162-11.78,1.661-23.741,4.213-34.216,10.08a49.06,49.06,0,0,0-7.4,5.054,29.289,29.289,0,0,0-5.821,5.921c-1.2,1.812-1.843,4.251-.117,5.968,1.8,1.79,5.079,1.945,7.455,2.011,6.239.17,12.341-1.937,18.189-3.859q9.939-3.266,19.656-7.155a329.657,329.657,0,0,0,37.389-17.662c-.534.525-1.058,1.058-1.6,1.578a351.312,351.312,0,0,1-55.474,43.833c-.778.5-1.572.971-2.355,1.462a48.175,48.175,0,0,0-11.757-5.769c-4.993-1.829-10.037-3.56-15.171-4.951-10.138-2.749-20.81-4.044-31.163-1.7a39.115,39.115,0,0,0-14.263,6.257c-1.529,1.1-3.406,2.466-3.352,4.574.052,2.043,1.846,3.518,3.51,4.389,4.546,2.377,10.044,2.979,15.082,3.281a148.669,148.669,0,0,0,17.457-.294q17.448-1.009,34.848-2.8a351.337,351.337,0,0,1-38.8,20.258,1.1,1.1,0,0,0-1.22-.632c-.143.027-.286.052-.428.08-8.909-4.68-17.763-10.027-27.592-12.46a57.456,57.456,0,0,0-27.888.05,55.44,55.44,0,0,0-7.021,2.311,16.278,16.278,0,0,0-5.1,2.727c-3.4,3.169.556,6.3,3.383,7.964,3.8,2.239,8.252,3.176,12.582,3.708a146.236,146.236,0,0,0,15.658.943,179.377,179.377,0,0,0,32.8-2.58c-4.176,1.789-8.381,3.513-12.625,5.14-.832.32-1.658.652-2.486.978a.443.443,0,0,0-.478,0c-.3.182-.61.363-.914.543q-2.149.865-4.28,1.782a.74.74,0,0,0-.465.612c-18.212,6.132-38.556,2.2-56.625,9.208-3.227,1.252-8.641,3.118-9.452,7.048C762.878,681.92,768.665,682.362,771.748,682.453Zm301.06-170.42a54.583,54.583,0,0,1,.281,16.449,25.479,25.479,0,0,1-2.465,7.973c-1.387,2.546-3.032.32-3.961-1.07a25.743,25.743,0,0,1-2.3-4.373c-2.417-5.766-3.8-12.053-5.248-18.119-1.51-6.342-2.927-12.706-4.414-19.053q-4.817-20.571-9.644-41.138C1059.5,469.617,1069.669,489.838,1072.808,512.033Zm-62.222-41.314A204.283,204.283,0,0,1,976.9,484.105c-2.022.577-17.45,4.094-17.041.133.129-1.258,1.741-2.526,2.563-3.356,1-1.012,2.039-1.984,3.1-2.932a73.933,73.933,0,0,1,6.962-5.486,119.765,119.765,0,0,1,31.443-15.24,110.962,110.962,0,0,1,37.557-5.654c-.161.438-.325.875-.488,1.313A242.5,242.5,0,0,1,1010.586,470.719Zm16.577,20.793c4.322,10.508,6.1,22.2,6.782,33.453a135.136,135.136,0,0,1-2.576,35.846c-1.153,5.511-2.535,11.1-5.208,16.091a19.245,19.245,0,0,1-2.315,3.641c-1.438,1.635-2.82.884-3.585-.791-1.2-2.617-1.4-5.9-1.593-8.737a88.417,88.417,0,0,1,1.167-18.59c.891-6.226,1.82-12.444,2.643-18.679C1024.333,519.7,1025.951,505.625,1027.162,491.512Zm-31.283,17.341c-4.913,2.892-9.88,5.7-14.96,8.291a75.155,75.155,0,0,1-15.045,6.192,31.479,31.479,0,0,1-8.007,1.079q-1.032,0-2.064-.089c-.967-.083-1.385.01-1.944-.839-.537-.816-.38-1.154.079-1.994a9.3,9.3,0,0,1,1.4-1.806,68.681,68.681,0,0,1,10.969-9.62,100.914,100.914,0,0,1,26.445-12.858c5.137-1.72,10.361-3.165,15.622-4.448s10.522-2.575,15.908-2c-.288.563-.572,1.128-.863,1.688Q1009.709,500.746,995.879,508.853Zm8.324,96.167a59.575,59.575,0,0,1-6.364,15.74,41.131,41.131,0,0,1-2.381,3.545c-.96,1.275-2.54,3.814-4.335,2.275-1.1-.94-1.216-3.511-1.288-4.846a35.617,35.617,0,0,1,.2-5.057c1.153-13.068,3.656-26.06,5.671-39.015q3.173-20.387,6.194-40.794C1008.4,558.969,1010.068,582.542,1004.2,605.02Zm-35.731-51.278c-10.952,5.987-22.455,11.9-34.912,13.913a52.946,52.946,0,0,1-9.2.694c-2.566-.039-5.885.027-8-1.7-2.8-2.288.436-5.347,2.188-7.1a50.479,50.479,0,0,1,6.75-5.628c9.419-6.6,20.64-10.139,31.713-12.82a380.421,380.421,0,0,1,41.1-7.209c-.314.439-.62.883-.934,1.322C988.462,542.605,978.483,548.271,968.473,553.742Zm.376,39.362a150.125,150.125,0,0,1,.694,17.236c-.215,11.672-2.093,23.478-6.531,34.323-2.087,5.1-4.689,10.162-8.652,14.068-1.442,1.421-5.591,5.368-7.753,3.859-2.07-1.444-1.471-5.213-1.181-7.275.876-6.222,3.247-12.163,5.165-18.112q2.96-9.188,5.6-18.475,5.711-20.109,9.906-40.6C968.2,582.658,968.386,588.331,968.849,593.1Zm-41.171-.164q-8.756,3.75-17.723,6.976a171.128,171.128,0,0,1-17.728,5.7,32.478,32.478,0,0,1-8.839,1.032c-2.648-.1-7.967-.632-5.929-4.539,1.276-2.447,3.867-4.513,5.974-6.227a52.458,52.458,0,0,1,6.738-4.623c9.814-5.7,21.136-8.337,32.253-10.05,12.187-1.878,24.469-2.736,36.74-3.762A347.143,347.143,0,0,1,927.678,592.941Zm2.167,15.549a110.012,110.012,0,0,1-3,30.678,122.309,122.309,0,0,1-12.337,30.452,67.243,67.243,0,0,1-9.812,13.834c-1.4,1.448-3.9,4.513-6.211,4.327-2.506-.2-.568-6.734-.175-8.313a79.467,79.467,0,0,1,6.347-15.853c2.75-5.565,5.538-11.11,8.2-16.716q8.963-18.842,16.735-38.218C929.677,608.618,929.761,608.555,929.845,608.49Zm-39.894,50.8a109.2,109.2,0,0,1-18.786,25.279A80.551,80.551,0,0,1,858.6,695.227a30.539,30.539,0,0,1-4.2,2.341c-.969.435-3.361,1.74-4.41,1.091-.881-.545-.471-1.984-.21-2.709.237-.661.519-1.306.812-1.945a40.947,40.947,0,0,1,1.972-3.738,131.573,131.573,0,0,1,10.577-14.516c3.786-4.768,7.664-9.46,11.524-14.167q12.463-15.2,24.824-30.482C898.57,641.046,894.665,650.567,889.95,659.291ZM868,629.948c-10.359.721-21.135,1.888-31.451.2-2.925-.478-14.683-3.043-9.241-7.462a35.768,35.768,0,0,1,13.061-6.444c9.668-2.663,19.837-1.83,29.487.461a161.818,161.818,0,0,1,16.08,4.889,51.1,51.1,0,0,1,11.974,5.539C887.965,628.292,878,629.252,868,629.948ZM844.237,678.3a100.828,100.828,0,0,1-16.516,22.088c-3.561,3.6-7.615,7.256-12.4,9.14-2.251.887-5.655.958-4.771-2.584a27.646,27.646,0,0,1,3.086-6.638c4.891-8.535,12.15-15.482,18.924-22.5l13.274-13.753a72.737,72.737,0,0,0,7.655-8.541A112.55,112.55,0,0,1,844.237,678.3ZM824.65,652.6q-7.337.184-14.673-.24a65.8,65.8,0,0,1-13.346-1.758,26.383,26.383,0,0,1-5.289-2.025,18.9,18.9,0,0,1-2.705-1.706c-1.209-.914-2.6-2.035-1.271-3.509,1.31-1.46,3.674-2.115,5.45-2.79a55.33,55.33,0,0,1,6.041-1.91,57.908,57.908,0,0,1,26.3-.621c9.535,2.029,17.973,6.99,26.335,11.832A177.823,177.823,0,0,1,824.65,652.6Zm-55.2,21.575a44.339,44.339,0,0,1,6.736-2.829c8.961-2.974,18.5-3.464,27.835-4.235,7.82-.645,15.575-1.518,22.946-3.96-14.829,8.39-30.669,15.632-47.766,16.969a71.428,71.428,0,0,1-7.58.195c-1.575-.044-5.237.2-5.8-1.846C765.281,676.5,768.048,674.912,769.445,674.175Z" transform="translate(893.336 2139.35)" fill="#3c4b56"/>
  </g>
</svg>
