<svg xmlns="http://www.w3.org/2000/svg" width="655.506" height="465.381" viewBox="0 0 655.506 465.381">
  <g id="Group_5" data-name="Group 5" transform="translate(-1367 74.543)">
    <path id="Path_17" data-name="Path 17" d="M39.2,174.939c15.55,16.759,34.819,31.332,56.6,36.1,28.878,6.316,59.536-4.492,82.693-22.867,13.23-10.5,25.361-23.845,41.782-27.8,24.206-5.828,47.505,10.586,71.495,17.246,40.039,11.116,85.388-7.453,109.523-41.279s27.65-80.171,12.833-118.992S367.655-52.669,330.41-71.094,250.7-95.835,209.2-93.765C143.793-90.5,71.743-60.012,31.064-7.184c-36.588,47.513-42.745,115.84-6.027,165.059A208.172,208.172,0,0,0,39.2,174.939Z" transform="matrix(0.891, 0.454, -0.454, 0.891, 1602.904, 9.169)" fill="#d3b379"/>
    <path id="Path_14" data-name="Path 14" d="M506.407,196.656c28.3,19.109,65.535,15.081,99.566,12.292s72.872-1.748,95.942,23.424c18.349,20.022,24.254,53.048,49.607,62.781,27.3,10.48,57.29-14.336,85.944-8.491,16.059,3.276,28.684,15.72,38.182,29.077s16.958,28.249,28.076,40.289c19.892,21.546,50.329,31.814,79.611,30.256s57.3-14.109,80.45-32.106c56.212-43.7,83.308-124.27,58.009-190.821-13.386-35.217-39.655-64.57-70.532-86.157S984.992,41.293,949,30.161A679.886,679.886,0,0,0,719.344.5c-43.662,1.883-87.632,8.13-128.123,24.57A236.607,236.607,0,0,0,544,50.678c-14.722,10.366-26.775,22.75-39.163,35.677-7.925,8.272-18.166,15.625-23.884,25.738-6.418,11.351-5.861,26.641-3.524,39.027C480.845,169.223,491.022,186.265,506.407,196.656Z" transform="translate(891.19 -61.158)" fill="#8bafa2"/>
    <path id="Path_15" data-name="Path 15" d="M772.559,131.709a31.244,31.244,0,0,0-2-12.357c-1.74-4.532-4.734-8.21-7.515-11.992-3.028-4.118-5.4-8.344-6.036-13.68-.549-4.621-.326-9.34-1.687-13.814-2.9-9.526-10.838-16.279-17.691-22.347a181.7,181.7,0,0,0-24.02-18.012c-.595-.373-1.2-.735-1.794-1.1-.279-.337-.558-.674-.84-1.007a23.552,23.552,0,0,0-2.289-2.85.806.806,0,0,0-.4-.233A117.118,117.118,0,0,0,696.9,23.286c-1.349-1.138-2.744-2.185-4.174-3.188-.012-.069-.021-.139-.034-.208a.73.73,0,0,0-1.094-.5.792.792,0,0,0-.725.259.461.461,0,0,0-.461.579c.186.863.344,1.726.488,2.586a40.956,40.956,0,0,1-9.869,13.313c-5.024,4.755-10.509,8.905-15.653,13.5C654.848,59.038,645,69.7,638.315,82.807a75.947,75.947,0,0,0-4.583,10.982,34.671,34.671,0,0,0-2.121,12.572.639.639,0,0,0,1.221.281C638.584,92,652.309,85.063,663.261,75.961A83.69,83.69,0,0,0,686.6,43.922a83.529,83.529,0,0,0,4.914-15.9c1.577,21.2-8.539,41.48-18.722,58.882-5.981,10.219-12.218,20.274-17.157,31.172a173.688,173.688,0,0,0-11.017,32.82,175.5,175.5,0,0,0-4.6,39.337.914.914,0,0,0,1.4.792c17.751-12.922,29.065-33.6,37.155-54.758C683,124.692,687,112.785,690.356,100.778a154.206,154.206,0,0,0,5.658-37.69c.159-6.21-.071-12.825-.532-19.169-.464-6.391-1.32-12.728-2.1-19.089a1.329,1.329,0,0,1,.358-1.112c1.473.64,13.7,10.793,13.171,12.076a.18.18,0,0,0,.066.24c.138.086.276.175.413.262q1.1,1.186,2.166,2.412c.195.223.382.453.575.679,3.066,5.205,4.057,11.735,3.751,17.9-.421,8.46-3.318,16.431-6.1,24.231-2.8,7.823-5.355,15.657-6.349,24.035a80.1,80.1,0,0,0,.781,24.006c1.522,8.178,4.413,15.937,6.414,23.97a65.9,65.9,0,0,1,1.985,12.193,56.13,56.13,0,0,1-.844,12.582c-.281,1.638-.641,3.275-1.047,4.913l-.036.031a.448.448,0,0,0-.108.553c-3.359,13.163-9.721,26.36-5.437,40.01,2.591,8.258,7.946,14.913,11.852,22.4,3.561,6.827,5.905,14.972,3.074,22.635a14.149,14.149,0,0,1-2.737,4.577c-.617.685.185,1.748.891,1.146,1.9-1.618,3.769-3.336,5.573-5.093a116.57,116.57,0,0,0,27.693-42.625c1.738-4.656,3.3-9.4,5.37-13.9a63.9,63.9,0,0,1,7.887-12.114c2.631-3.426,5.117-7.08,6.262-11.448a32.234,32.234,0,0,0,.729-10.659c-.577-7.511-2.824-14.817-2.885-22.383a29.617,29.617,0,0,1,2.433-11.785C770.988,140.4,772.377,136.327,772.559,131.709ZM634.88,94.42a74.017,74.017,0,0,1,3.961-9.746A91.615,91.615,0,0,1,650.4,66.962,146.12,146.12,0,0,1,665.936,51c4.974-4.456,10.246-8.509,15.133-13.082a46.908,46.908,0,0,0,8.862-10.738c-4.3,10.5-11.244,19.274-18.922,27.129-9.132,9.343-19.324,17.609-27.177,28.363a74.56,74.56,0,0,0-6.01,9.7,101.1,101.1,0,0,0-4.848,10.558A39.245,39.245,0,0,1,634.88,94.42Zm41.817-35A78.056,78.056,0,0,1,663.419,74.2c-5.812,4.974-12.216,9.036-18.031,14.005a56.007,56.007,0,0,0-9.626,10.3c.687-1.463,1.375-2.927,2.118-4.352a81.887,81.887,0,0,1,5.743-9.507A119.885,119.885,0,0,1,656.6,69.594c9.1-9.166,18.956-17.588,26.513-28.424a61.949,61.949,0,0,0,6.973-12.778A88.832,88.832,0,0,1,676.7,59.422Zm-31.386,95.1a169.754,169.754,0,0,1,10.753-33.837C665.6,98.915,680.822,80.457,688.4,57.6c.9-2.707,1.67-5.475,2.312-8.277-.4,3.142-.859,6.278-1.4,9.412a286.725,286.725,0,0,1-7.592,32.593c-6.439,21.759-15.077,42.646-24.426,63.06q-3.975,8.682-8.1,17.281c-2.42,5.07-5.081,10.08-7.3,15.273A175.083,175.083,0,0,1,645.311,154.525ZM693.24,38.834c.575,6.437.948,12.892.958,19.376a155.863,155.863,0,0,1-4.337,37.374,338.58,338.58,0,0,1-11.235,35.787,179.119,179.119,0,0,1-14.724,31.72,90.581,90.581,0,0,1-21.707,24.922c2.558-4.614,4.742-9.527,7.03-14.3q3.644-7.6,7.2-15.249c4.79-10.331,9.411-20.76,13.682-31.365,8.332-20.688,15.46-42.227,19.7-64.409A235.617,235.617,0,0,0,693.24,38.834Zm61.991,49.417c.236,4.631.436,9.179,2.381,13.4,2.058,4.464,5.327,8.066,8.042,12.03a31.307,31.307,0,0,1,3.954,7.894q-6.417-5.519-13.03-10.755c-2.366-1.868-4.738-3.725-7.136-5.543-2.3-1.744-4.725-3.352-6.943-5.219a176.653,176.653,0,0,0-12.151-32.725c7.613,3.325,15.177,6.81,22.755,10.231A32.459,32.459,0,0,1,755.231,88.251Zm-42.077-48.2a220.769,220.769,0,0,1,17.784,13.277q5.73,4.748,11.157,9.919a52.774,52.774,0,0,1,9.5,11.229,23.793,23.793,0,0,1,1.191,2.357c-7.686-3.554-15.4-7.057-23.046-10.723-.344-.686-.678-1.378-1.032-2.059A145.738,145.738,0,0,0,713.154,40.05ZM708.192,86.14c2.819-8,6.087-15.955,7.213-24.511a41.215,41.215,0,0,0-1.055-17.067A138.295,138.295,0,0,1,724.6,59.794c1.115,1.921,2.173,3.877,3.206,5.851-3.864,5.806-8.042,11.237-12.412,16.589-2.161,2.647-4.326,5.293-6.418,8.007-1.162,1.507-2.378,3.035-3.5,4.628C706.257,91.933,707.174,89.028,708.192,86.14Zm-2.863,49.28a80.666,80.666,0,0,1-2.515-24.646,76.429,76.429,0,0,1,1.97-13.153c1.621-2.192,3.13-4.5,4.785-6.655,2.128-2.777,4.332-5.48,6.534-8.187,4.227-5.2,8.633-10.41,12.166-16.222a169.8,169.8,0,0,1,12.907,33.627C730.992,114.706,718,126.5,706.5,139.694,706.091,138.274,705.7,136.851,705.329,135.42Zm1.512,5.487c11.26-13.508,24.008-25.4,34.64-39.554q1.088,4.154,1.992,8.365a195.662,195.662,0,0,1,4.153,37.442.524.524,0,0,0-.147.133c-2.65,3.583-6.032,6.447-9.226,9.413-3.222,2.991-6.5,5.919-9.757,8.858-5.838,5.259-11.637,10.612-17.572,15.746a59.861,59.861,0,0,0,.732-21.5C710.616,153.35,708.645,147.151,706.841,140.907Zm-3.054,78.338a34.753,34.753,0,0,1,.151-11.533c1.288-7.856,4.31-15.22,6.206-22.9.17-.689.319-1.381.472-2.073,6.146-5.722,12.491-11.21,18.7-16.848,3.307-3,6.594-6.032,9.906-9.029a75.454,75.454,0,0,0,8.422-8.3q.076,7.348-.328,14.693a252.083,252.083,0,0,1-3.542,30.026c-3.234,2.1-6.418,4.3-9.659,6.385l-10.353,6.667c-6.684,4.307-13.354,8.642-19.924,13.158C703.822,219.409,703.8,219.328,703.787,219.245Zm4.563,12.13a42.157,42.157,0,0,1-4.276-10.721c6.872-5.6,14.444-10.151,21.768-14.987l11.03-7.283c1.837-1.213,3.693-2.39,5.544-3.577.406-.261.811-.528,1.224-.777q-2,11.12-4.854,22.028c-2.366,9.041-5.14,17.944-8.217,26.718-4.014,2.311-7.821,5.08-11.877,7.3C716.037,243.405,711.737,237.62,708.35,231.375Zm13.128,35.019q-.559,1.337-1.116,2.678c-.387.354-.778.7-1.168,1.052a23.775,23.775,0,0,0,1.05-15.239,35.712,35.712,0,0,0-1.29-4.11c3.651-2.585,7.586-4.685,11.31-7.144Q726.192,255.157,721.478,266.394Zm.616,1.024q5.261-11.8,9.6-24.078a36.585,36.585,0,0,1,2.109,3.818c.669,1.284,1.466,2.48,2.241,3.689A108.189,108.189,0,0,1,722.094,267.418ZM751.3,219.312c-1.719,4.615-3.339,9.27-5.334,13.754a114.268,114.268,0,0,1-6.977,13.254c-.83,1.354-1.7,2.679-2.584,3.99-.663-1.2-1.317-2.405-2.082-3.528a31.868,31.868,0,0,1-2.476-3.888q3.624-10.27,6.6-20.783c2.579-9.162,4.746-18.473,6.441-27.885.7.92,1.274,2.011,1.888,3,2.763,4.43,5.4,8.948,8.232,13.323,0,.006.008.008.012.012A88.6,88.6,0,0,0,751.3,219.312Zm16.287-46.261a52.133,52.133,0,0,1,.907,10.743,24.276,24.276,0,0,1-3.458,11.565c-2.321,3.888-5.292,7.239-7.7,11.056-.664,1.051-1.28,2.136-1.86,3.244-3.392-5.489-7.019-10.794-10.444-16.259,1.42-8.026,2.5-16.122,3.154-24.27q.771-9.639.736-19.332a98.575,98.575,0,0,0,17.863,18.689C767.062,170.016,767.341,171.539,767.592,173.052ZM765.7,151.414c-.821,5.451,0,10.94.958,16.342A168.181,168.181,0,0,1,748.913,148.2a199.945,199.945,0,0,0-3.053-33q-1.254-6.98-3.016-13.838c2.076,1.344,4.059,2.915,6.044,4.389,2.471,1.834,4.93,3.692,7.354,5.6q6.977,5.492,13.719,11.334a27.713,27.713,0,0,1,.741,3.4,29.017,29.017,0,0,1-.893,12.834C768.506,143.152,766.371,146.949,765.7,151.414Z" transform="matrix(0.819, 0.574, -0.574, 0.819, 1341.58, -414.323)" fill="#6d7d8c"/>
  </g>
</svg>
